<?xml version="1.0" standalone="no"?>
<!DOCTYPE svg PUBLIC "-//W3C//DTD SVG 20010904//EN"
 "http://www.w3.org/TR/2001/REC-SVG-20010904/DTD/svg10.dtd">
<svg version="1.0" xmlns="http://www.w3.org/2000/svg"
 width="648.000000pt" height="648.000000pt" viewBox="0 0 648.000000 648.000000"
 preserveAspectRatio="xMidYMid meet">
<metadata>
Created by potrace 1.11, written by Peter Selinger 2001-2013
</metadata>
<g transform="translate(0.000000,648.000000) scale(0.100000,-0.100000)"
fill="#000000" stroke="none">
<path d="M2980 6394 c-595 -53 -1081 -219 -1550 -530 -182 -120 -326 -239
-490 -404 -513 -512 -814 -1126 -916 -1865 -25 -183 -25 -607 0 -790 72 -523
232 -953 512 -1375 120 -182 239 -326 404 -490 512 -513 1128 -815 1865 -916
183 -25 608 -25 790 0 523 72 953 232 1375 512 182 120 326 239 490 404 513
512 814 1126 916 1865 25 183 25 607 0 790 -72 523 -232 953 -512 1375 -120
182 -239 326 -404 490 -510 511 -1132 817 -1860 915 -110 15 -523 28 -620 19z
m466 -104 c1078 -85 2039 -732 2524 -1699 506 -1009 426 -2205 -211 -3141
-203 -298 -511 -606 -809 -809 -662 -451 -1458 -628 -2250 -500 -973 156
-1826 782 -2270 1668 -506 1009 -426 2205 211 3141 203 298 511 606 809 809
589 401 1288 587 1996 531z"/>
<path d="M3166 6135 c-3 -10 1 -15 13 -15 11 0 21 -5 23 -10 2 -6 16 -13 32
-16 16 -3 33 -7 37 -10 14 -8 21 17 8 32 -7 9 -26 14 -47 12 -21 -1 -37 3 -40
10 -5 17 -19 15 -26 -3z"/>
<path d="M3745 6139 c-3 -5 -23 -13 -45 -19 -21 -6 -57 -26 -80 -45 -23 -19
-48 -35 -55 -35 -13 0 -29 -29 -21 -37 2 -2 23 -6 45 -7 53 -4 73 -28 65 -75
-5 -32 -1 -38 47 -83 58 -53 68 -57 76 -28 3 11 9 20 13 20 17 0 -31 74 -60
91 -36 22 -37 30 -9 55 12 10 29 35 38 54 23 49 51 50 83 4 25 -35 27 -35 37
-15 7 12 9 21 6 21 -3 0 -1 9 5 20 6 11 17 20 25 20 8 0 15 6 15 13 0 8 -28
20 -72 31 -102 24 -107 25 -113 15z"/>
<path d="M4009 6055 c-1 -14 -2 -38 -3 -55 -1 -18 -9 -36 -23 -45 -13 -9 -23
-23 -23 -31 0 -8 -12 -26 -27 -40 -26 -24 -26 -24 -7 -45 21 -23 20 -60 -2
-72 -8 -4 -14 -17 -14 -29 0 -16 3 -18 13 -9 11 8 16 6 24 -12 6 -13 8 -30 3
-37 -4 -7 -1 -20 8 -31 22 -25 32 -24 32 3 0 23 39 88 53 88 4 0 -2 -13 -14
-29 -28 -38 -34 -83 -11 -79 11 2 16 -3 16 -15 -2 -24 45 -36 58 -13 5 9 14
14 19 10 6 -3 23 -1 39 6 24 10 27 15 18 30 -13 20 -5 49 14 54 7 2 32 9 55
16 36 11 44 11 58 -4 18 -18 35 -13 35 10 0 8 7 14 15 14 21 0 85 59 85 80 0
13 -12 19 -52 26 -52 9 -53 10 -56 47 -3 40 -12 46 -32 22 -16 -19 -69 -19
-94 0 -19 15 -19 16 19 55 28 29 35 41 24 45 -63 23 -201 65 -214 65 -9 0 -15
-10 -16 -25z"/>
<path d="M3574 5949 c-3 -6 0 -18 9 -26 13 -13 14 -12 10 11 -6 29 -9 31 -19
15z"/>
<path d="M2922 5854 c-6 -12 -14 -13 -35 -5 -14 6 -29 6 -32 2 -6 -11 54 -71
112 -113 24 -17 41 -34 38 -36 -3 -3 -13 2 -23 11 -26 23 -39 21 -18 -2 10
-11 28 -21 40 -23 11 -2 20 -6 19 -10 -4 -11 30 -46 40 -41 11 6 8 -15 -3 -22
-5 -3 -10 -1 -10 4 0 12 -78 66 -85 59 -3 -2 36 -47 86 -99 50 -52 100 -107
111 -124 11 -16 -1 -7 -26 20 -25 28 -46 44 -46 37 0 -7 -40 29 -88 79 -71 75
-90 89 -95 75 -4 -9 -3 -15 2 -12 4 3 23 -11 42 -30 24 -25 28 -33 14 -28 -34
13 -155 105 -166 126 -9 16 -13 18 -20 7 -7 -12 -23 -6 -24 9 -3 52 -20 65
-95 78 -23 4 -22 3 8 -17 37 -25 41 -33 10 -24 -17 5 -11 -3 20 -30 23 -20 42
-43 42 -51 0 -7 11 -16 25 -20 14 -3 23 -10 20 -14 -2 -4 7 -16 21 -26 37 -26
122 -107 104 -98 -8 4 -23 14 -33 22 -9 8 -20 13 -23 10 -7 -7 -64 48 -64 62
0 5 -3 9 -7 9 -30 -5 -62 3 -58 14 2 6 -11 19 -30 28 -19 9 -35 13 -35 10 0
-10 95 -81 108 -81 6 0 12 -3 14 -8 4 -11 127 -112 171 -142 20 -14 37 -29 37
-33 0 -9 -73 39 -135 88 -43 35 -137 89 -182 105 l-28 10 25 -20 25 -21 -25 6
c-31 8 -15 -5 50 -40 48 -26 113 -75 74 -56 -36 17 -124 51 -124 47 0 -2 25
-21 55 -41 30 -21 53 -40 51 -42 -3 -3 -23 7 -88 47 -29 17 -21 4 25 -41 23
-24 31 -34 17 -22 -14 11 -41 28 -60 38 -19 10 -42 21 -50 25 -8 5 -14 13 -12
19 1 6 -1 10 -5 9 -5 -2 -25 8 -46 21 -29 18 -56 24 -109 26 -39 2 -75 8 -81
14 -6 6 -22 11 -36 10 -15 0 -20 -3 -13 -6 6 -2 10 -9 6 -14 -3 -5 -1 -9 3 -9
5 0 18 -7 29 -15 16 -12 -29 3 -126 43 -13 5 -13 3 -1 -11 7 -9 17 -17 21 -17
14 0 102 -42 97 -46 -2 -3 -24 2 -48 10 -56 20 -72 20 -36 0 15 -8 27 -17 27
-19 0 -3 -27 -4 -60 -3 -37 1 -65 -3 -73 -11 -9 -10 -9 -11 4 -6 10 4 20 2 24
-4 3 -6 -2 -11 -12 -11 -15 0 -16 -2 -3 -11 11 -7 6 -8 -20 -3 -19 3 -36 10
-38 15 -2 5 -18 9 -35 8 -26 -1 -28 -2 -12 -8 69 -25 86 -34 81 -47 -3 -8 0
-11 10 -7 7 3 14 0 14 -6 0 -6 -9 -11 -20 -11 -11 0 -20 -7 -20 -15 0 -11 11
-15 36 -15 19 0 33 -4 29 -9 -3 -6 8 -8 29 -4 19 3 36 1 40 -6 9 -14 -43 -14
-103 0 -24 5 -51 7 -60 3 -9 -4 -27 -6 -41 -5 -18 2 -22 0 -15 -8 6 -6 52 -11
102 -12 67 -2 90 -5 87 -14 -4 -9 -17 -10 -52 -3 -51 10 -155 1 -131 -12 8 -4
58 -12 112 -19 107 -14 136 -21 214 -57 60 -28 82 -51 27 -28 -36 15 -224 55
-254 53 -8 0 10 -8 40 -18 52 -16 54 -18 25 -23 -19 -4 -42 0 -65 12 -54 27
-95 31 -127 14 -21 -11 -23 -15 -8 -13 11 1 33 -3 48 -9 40 -17 58 -14 22 3
l-30 14 30 -6 c17 -3 47 -12 68 -19 21 -8 41 -13 45 -13 19 3 33 -2 28 -10 -3
-5 2 -8 12 -7 9 0 16 -4 15 -11 -2 -8 4 -10 14 -6 10 4 14 2 10 -4 -4 -6 -1
-14 5 -16 7 -3 -11 -3 -40 -1 -29 3 -64 9 -80 15 -15 6 -53 16 -84 24 -52 12
-56 11 -50 -4 3 -9 15 -24 27 -33 25 -22 18 -22 -28 -3 -41 17 -59 19 -37 5
13 -8 12 -10 -2 -10 -10 0 -18 -5 -18 -11 0 -5 -6 -7 -12 -3 -10 6 -9 3 0 -8
8 -10 20 -14 29 -11 11 4 14 2 9 -5 -4 -7 -2 -12 4 -12 6 0 8 -4 5 -10 -4 -6
8 -10 27 -11 34 -1 29 -3 -35 -14 l-38 -6 24 -20 c14 -10 31 -19 39 -19 8 0
14 -9 15 -20 1 -11 -2 -18 -7 -15 -4 3 -10 -2 -14 -10 -7 -19 41 -32 57 -16 6
6 21 11 33 11 11 0 52 12 90 26 193 72 206 76 297 77 62 2 92 6 95 15 2 6 19
12 38 12 19 0 43 5 54 10 11 6 29 15 40 20 11 6 27 10 36 10 8 0 25 5 37 12
12 7 32 11 44 9 11 -1 24 3 28 8 3 6 19 11 36 11 16 0 29 5 29 11 0 7 10 9 28
5 36 -9 127 -10 140 -2 6 3 17 3 25 0 8 -3 18 0 22 6 4 6 15 8 26 5 11 -4 19
-2 19 5 0 8 10 10 24 8 17 -4 23 -1 19 9 -7 18 12 17 27 -2 8 -10 17 -12 24
-6 13 11 62 9 73 -2 14 -15 25 -6 20 16 -5 18 -4 20 6 7 7 -9 23 -14 37 -13
106 9 137 10 148 1 8 -7 12 -7 12 0 0 6 12 10 28 8 15 -1 37 2 49 7 25 11 68
-16 77 -48 5 -17 7 -18 16 -5 8 13 10 13 10 -2 0 -9 11 -25 25 -36 14 -11 25
-27 25 -36 0 -9 5 -16 11 -16 5 0 7 -4 4 -10 -3 -5 -1 -10 4 -10 6 0 11 -7 11
-15 0 -21 35 -76 44 -68 4 4 4 0 0 -10 -4 -12 -1 -17 10 -17 19 0 21 -16 4
-23 -10 -4 -9 -8 2 -16 8 -6 11 -11 7 -11 -5 0 1 -13 12 -29 12 -16 21 -34 21
-39 0 -16 21 -26 29 -13 4 6 7 -5 8 -24 1 -20 7 -42 13 -50 7 -8 9 -15 4 -15
-4 0 1 -9 12 -20 33 -33 41 -45 36 -58 -2 -6 2 -12 8 -12 8 0 10 -12 5 -38 -6
-35 -3 -41 34 -75 22 -20 45 -37 51 -37 5 0 10 -7 10 -15 0 -8 9 -19 19 -25
27 -14 34 -13 27 5 -4 10 1 15 15 15 11 0 22 -7 26 -16 3 -8 11 -13 19 -10 7
3 15 2 17 -2 2 -4 2 -2 1 5 -2 7 1 15 6 18 7 4 6 13 0 26 -12 22 -7 24 21 9
13 -7 19 -7 19 0 0 5 -5 10 -11 10 -6 0 -8 8 -4 19 3 11 8 58 10 104 3 70 0
90 -16 116 -10 17 -24 31 -30 31 -7 0 -9 12 -5 35 4 22 3 35 -4 35 -5 0 -10 5
-10 11 0 5 4 7 10 4 6 -4 9 10 7 34 -1 23 -5 41 -9 41 -7 0 -23 42 -19 49 2 2
-3 8 -11 12 -10 7 -8 9 7 9 19 1 19 1 3 14 -10 7 -18 20 -18 28 0 9 -6 21 -14
27 -7 6 -11 22 -8 36 3 19 0 25 -14 25 -13 0 -15 3 -7 11 12 12 6 49 -9 49 -6
0 -5 7 2 15 11 13 8 15 -13 15 -19 0 -25 4 -21 14 11 29 -19 27 -78 -3 -84
-44 -82 -34 3 14 38 21 65 41 59 45 -5 3 -14 30 -21 59 -6 29 -17 55 -25 58
-9 3 -13 16 -12 32 4 36 -33 37 -42 1 -4 -19 -7 -21 -12 -9 -3 8 3 26 13 40
23 30 27 57 5 37 -8 -7 -12 -16 -10 -20 2 -3 -1 -12 -8 -20 -12 -12 -50 -91
-62 -128 -3 -12 -5 -12 -5 2 -1 9 8 37 19 63 11 26 22 61 25 78 l5 32 -20 -25
c-11 -14 -30 -36 -41 -49 -11 -14 -27 -42 -36 -63 -9 -21 -17 -37 -19 -35 -5
4 43 128 52 136 4 3 4 -2 1 -11 -10 -29 -1 -21 22 18 25 42 26 51 4 33 -14
-12 -16 -12 -11 1 5 15 -33 60 -52 60 -5 0 -10 5 -10 10 0 6 -5 10 -11 10 -7
0 -8 -12 -4 -32 l6 -33 -15 31 c-15 33 -56 77 -64 69 -3 -2 1 -12 9 -22 8 -9
9 -14 2 -10 -6 4 -15 2 -19 -4 -4 -8 -3 -9 4 -5 8 4 12 0 12 -11 0 -14 2 -15
9 -5 7 11 9 11 14 -2 4 -9 2 -16 -3 -16 -6 0 -10 -10 -10 -22 0 -17 -5 -14
-28 18 -16 21 -36 45 -45 53 -9 7 -17 19 -17 26 0 7 -7 19 -17 26 -15 13 -15
12 -3 -10 11 -21 10 -23 -4 -18 -9 4 -16 2 -16 -3 0 -5 11 -12 25 -16 14 -3
22 -10 19 -15 -3 -5 6 -20 19 -33 17 -16 21 -28 15 -34 -14 -14 -62 43 -52 59
4 8 3 9 -4 5 -6 -4 -17 5 -26 21 -8 15 -33 47 -56 71 -22 23 -39 46 -38 50 2
4 -9 19 -24 34 -15 15 -28 25 -28 22 0 -17 38 -74 68 -103 37 -34 62 -74 62
-95 0 -6 -12 1 -25 17 -13 15 -26 27 -29 27 -12 0 10 -48 30 -66 l23 -21 -27
0 c-21 0 -36 11 -62 45 -48 63 -157 168 -166 159 -2 -2 5 -15 17 -28 41 -47
73 -110 60 -119 -10 -5 -9 -11 4 -23 9 -9 13 -22 10 -28 -4 -6 2 -20 12 -32
17 -19 18 -26 8 -45 -12 -22 -13 -21 -25 30 -16 67 -19 73 -33 54 -10 -12 -16
-10 -42 17 -16 17 -29 32 -27 34 6 8 1 23 -9 23 -8 0 -8 -5 1 -15 9 -11 10
-15 1 -15 -7 0 -3 -13 10 -32 22 -32 22 -33 1 -14 -12 10 -28 16 -36 13 -9 -4
-13 -1 -10 7 3 7 -5 21 -17 32 -20 17 -22 17 -16 2 4 -10 5 -18 3 -18 -2 0
-29 26 -59 57 l-56 58 -24 -23 c-13 -12 -25 -21 -28 -19 -2 1 13 -15 34 -36
36 -36 46 -65 12 -37 -25 21 -17 3 16 -35 18 -20 29 -38 27 -41 -3 -2 -22 17
-43 43 -21 27 -47 56 -58 66 -10 9 -14 17 -9 17 6 0 1 11 -11 24 -12 14 -32
38 -45 55 -13 17 -30 31 -37 31 -12 0 -40 20 -86 62 -16 15 -19 16 -27 2z
m106 -105 c20 -23 43 -51 51 -63 8 -12 -1 -5 -19 14 -18 19 -44 47 -58 63 -14
15 -23 27 -19 27 4 0 24 -19 45 -41z m113 -151 c19 -24 26 -37 16 -29 -20 16
-61 71 -54 71 3 0 20 -19 38 -42z m400 20 c11 -21 11 -22 -4 -9 -10 7 -17 17
-17 22 0 15 9 10 21 -13z m-157 -58 l7 -25 -15 25 c-17 28 -21 50 -7 35 5 -6
12 -21 15 -35z m163 13 c-8 -7 -37 9 -31 19 3 5 12 4 20 -3 8 -6 13 -14 11
-16z m-117 -13 c0 -5 -2 -10 -4 -10 -3 0 -8 5 -11 10 -3 6 -1 10 4 10 6 0 11
-4 11 -10z m210 -21 c0 -6 -4 -7 -10 -4 -5 3 -10 11 -10 16 0 6 5 7 10 4 6 -3
10 -11 10 -16z m-1215 -9 c3 -5 2 -10 -4 -10 -5 0 -13 5 -16 10 -3 6 -2 10 4
10 5 0 13 -4 16 -10z m90 -29 c2 -4 -11 -3 -30 3 -19 6 -35 14 -35 18 0 8 58
-11 65 -21z m1115 -26 c0 -5 -5 -3 -10 5 -5 8 -10 20 -10 25 0 6 5 3 10 -5 5
-8 10 -19 10 -25z m-1075 5 c3 -6 -1 -7 -9 -4 -18 7 -21 14 -7 14 6 0 13 -4
16 -10z m46 -27 c13 -17 13 -17 -6 -3 -11 8 -22 16 -24 17 -2 2 0 3 6 3 6 0
17 -8 24 -17z m1246 -15 c-3 -7 -5 -2 -5 12 0 14 2 19 5 13 2 -7 2 -19 0 -25z
m-1487 -10 c0 -4 -13 -2 -30 3 -16 6 -28 15 -25 19 6 9 55 -11 55 -22z m20 11
c17 -30 6 -34 -14 -4 -9 14 -12 25 -7 25 6 0 15 -9 21 -21z m185 -13 c19 -8
35 -17 35 -20 0 -5 -71 22 -79 30 -9 8 11 4 44 -10z m-238 -23 c18 -9 31 -18
28 -22 -2 -4 18 -13 45 -20 28 -7 52 -17 55 -21 3 -5 -16 -2 -42 5 -78 22
-124 41 -124 51 1 5 -2 9 -6 9 -5 0 -17 6 -28 13 -18 11 -17 12 10 6 17 -4 45
-13 62 -21z m1346 -11 c4 -21 3 -31 -3 -27 -6 3 -10 20 -10 37 0 38 5 34 13
-10z m187 -53 c-7 -11 -14 -18 -17 -15 -3 3 0 12 7 21 18 21 23 19 10 -6z
m-1573 -5 c-3 -3 -12 -4 -19 -1 -8 3 -5 6 6 6 11 1 17 -2 13 -5z m60 0 c-3 -3
-12 -4 -19 -1 -8 3 -5 6 6 6 11 1 17 -2 13 -5z m183 -14 c13 -9 13 -10 0 -10
-8 0 -22 5 -30 10 -13 9 -13 10 0 10 8 0 22 -5 30 -10z m-253 -96 c-3 -3 -12
-4 -19 -1 -8 3 -5 6 6 6 11 1 17 -2 13 -5z"/>
<path d="M3490 5850 c0 -5 5 -10 11 -10 5 0 7 5 4 10 -3 6 -8 10 -11 10 -2 0
-4 -4 -4 -10z"/>
<path d="M2545 5780 c3 -5 27 -19 52 -30 35 -15 49 -18 57 -9 8 9 7 10 -6 6
-9 -3 -30 5 -49 19 -33 24 -66 33 -54 14z"/>
<path d="M2459 5754 c19 -8 41 -25 51 -36 12 -15 22 -19 36 -14 18 7 17 9 -6
18 -13 5 -31 15 -40 22 -8 7 -28 16 -45 19 -30 6 -30 6 4 -9z"/>
<path d="M2811 5767 c2 -1 15 -11 29 -22 l25 -20 -19 23 c-11 12 -24 22 -29
22 -6 0 -8 -1 -6 -3z"/>
<path d="M2870 5762 c0 -14 24 -39 45 -46 17 -5 16 -3 -5 15 -14 12 -24 26
-22 30 1 5 -2 9 -8 9 -5 0 -10 -4 -10 -8z"/>
<path d="M2553 5735 c29 -26 34 -37 16 -32 -6 1 -14 -4 -16 -11 -4 -11 -1 -12
15 -3 16 8 24 8 34 -3 10 -10 20 -11 32 -4 15 9 15 11 -6 27 -27 21 -83 51
-95 51 -4 0 4 -12 20 -25z"/>
<path d="M2669 5730 c-8 -6 -4 -13 14 -25 36 -23 52 -15 22 11 -13 12 -29 18
-36 14z"/>
<path d="M2381 5716 c2 -2 15 -9 29 -16 23 -12 24 -12 11 3 -7 10 -20 17 -29
17 -8 0 -13 -2 -11 -4z"/>
<path d="M2444 5690 c0 -11 1 -20 2 -20 1 0 10 3 18 6 13 5 14 9 5 20 -16 20
-25 17 -25 -6z"/>
<path d="M2868 5689 c20 -23 28 -24 35 -5 4 11 1 13 -10 9 -9 -4 -14 -2 -10 3
3 6 -3 10 -13 11 -17 2 -18 0 -2 -18z"/>
<path d="M3830 5676 c0 -2 7 -9 15 -16 9 -7 15 -8 15 -2 0 5 -7 12 -15 16 -8
3 -15 4 -15 2z"/>
<path d="M4253 5633 c-26 -27 -58 -55 -69 -63 -29 -20 -40 -67 -16 -67 9 0 26
7 37 16 19 16 19 16 2 -11 -17 -28 -17 -28 6 -28 13 0 27 4 33 10 6 6 9 -6 8
-31 -1 -26 -8 -45 -20 -54 -10 -8 -14 -15 -8 -15 6 0 14 3 18 7 10 11 40 13
46 4 3 -5 34 0 70 11 51 15 73 28 102 61 21 23 38 45 38 50 0 8 -49 -1 -65
-13 -16 -12 -65 -21 -75 -15 -6 4 -4 21 5 42 20 47 19 52 -10 63 -20 8 -25 16
-25 45 0 48 -19 45 -77 -12z m-57 -101 c-18 -16 -18 -16 -6 6 6 13 14 21 18
18 3 -4 -2 -14 -12 -24z"/>
<path d="M2500 5656 c28 -17 50 -21 35 -7 -6 5 -21 12 -35 15 l-25 7 25 -15z"/>
<path d="M3570 5645 c0 -8 5 -15 10 -15 6 0 10 7 10 15 0 8 -4 15 -10 15 -5 0
-10 -7 -10 -15z"/>
<path d="M3940 5608 c0 -9 5 -20 10 -23 13 -8 13 5 0 25 -8 13 -10 13 -10 -2z"/>
<path d="M3986 5605 c-9 -26 -7 -32 5 -12 6 10 9 21 6 23 -2 3 -7 -2 -11 -11z"/>
<path d="M4583 5609 c-6 -6 -26 -14 -45 -18 -43 -9 -51 -38 -10 -39 35 -1 92
41 77 57 -8 8 -14 8 -22 0z"/>
<path d="M2128 5593 c7 -3 16 -2 19 1 4 3 -2 6 -13 5 -11 0 -14 -3 -6 -6z"/>
<path d="M4121 5546 c-16 -19 -11 -29 8 -17 7 5 12 14 9 21 -3 9 -8 7 -17 -4z"/>
<path d="M3070 5530 c0 -5 5 -10 11 -10 5 0 7 5 4 10 -3 6 -8 10 -11 10 -2 0
-4 -4 -4 -10z"/>
<path d="M4515 5430 c-32 -33 -46 -40 -78 -40 -26 0 -37 -4 -35 -12 5 -17 66
-46 103 -50 29 -3 30 -1 28 32 -2 31 1 37 27 47 34 13 39 37 12 52 -15 8 -26
3 -57 -29z"/>
<path d="M5210 5402 c0 -4 9 -13 20 -20 26 -16 25 -37 -1 -55 -12 -9 -16 -17
-10 -21 12 -8 51 28 51 47 0 8 -10 23 -23 35 -24 23 -37 28 -37 14z"/>
<path d="M4656 5324 c-41 -21 -54 -23 -79 -14 -38 13 -36 13 -30 -9 7 -28 -36
-54 -79 -46 -18 3 -46 2 -63 -3 -25 -7 -30 -14 -31 -41 0 -20 -7 -37 -17 -43
-9 -5 -17 -16 -17 -25 0 -12 7 -14 35 -9 22 4 35 3 35 -4 0 -5 -4 -10 -9 -10
-5 0 -12 -11 -15 -24 -3 -14 -15 -27 -26 -31 -19 -6 -19 -7 -3 -32 l17 -25 15
34 c9 18 23 33 31 33 8 0 16 10 18 23 2 12 8 22 13 22 5 0 9 5 9 12 0 9 -3 9
-12 0 -15 -15 -28 -16 -28 -2 0 6 6 10 13 10 7 0 23 9 35 20 12 11 25 20 31
20 17 0 20 -30 3 -40 -15 -8 -15 -11 -2 -20 20 -14 102 -8 108 8 2 6 -3 12
-11 12 -7 0 -22 9 -32 20 -21 23 -9 44 31 54 16 4 30 19 40 41 11 28 23 37 60
48 43 12 44 14 27 29 -17 16 -22 15 -67 -8z m-116 -154 c0 -5 -4 -10 -10 -10
-5 0 -10 5 -10 10 0 6 5 10 10 10 6 0 10 -4 10 -10z"/>
<path d="M5137 5336 c-3 -7 -20 -16 -38 -20 -42 -8 -59 -23 -59 -52 0 -28 11
-36 63 -40 52 -3 85 18 83 54 -1 31 -41 78 -49 58z"/>
<path d="M3660 5234 c0 -3 7 -12 15 -20 16 -17 18 -14 9 10 -6 15 -24 23 -24
10z"/>
<path d="M5288 5183 c-10 -2 -18 -8 -18 -13 0 -14 -24 -18 -73 -10 -32 5 -50
3 -55 -4 -15 -23 -87 -48 -112 -38 -14 5 -36 8 -49 5 -25 -4 -80 -58 -81 -80
0 -24 45 -36 149 -40 68 -3 112 -10 125 -19 14 -9 32 -12 55 -8 l34 7 -5 -47
c-3 -25 -2 -46 2 -46 16 0 19 -33 5 -53 -8 -12 -15 -29 -15 -39 0 -22 -31 -31
-64 -19 -28 11 -32 22 -16 52 13 23 -2 26 -20 4 -7 -8 -21 -15 -31 -15 -9 0
-24 -7 -33 -15 -8 -8 -19 -15 -24 -15 -5 0 -14 -6 -20 -12 -8 -10 -4 -13 14
-15 13 -1 35 -3 49 -4 14 -1 24 -4 22 -8 -2 -3 -10 -20 -17 -38 -15 -34 -55
-58 -116 -69 -46 -8 -67 -22 -60 -40 3 -8 -4 -19 -15 -25 -16 -8 -26 -7 -45 6
-31 20 -58 13 -49 -14 8 -26 -7 -33 -79 -36 -73 -3 -133 12 -141 34 -8 20 23
43 47 35 10 -3 18 0 18 6 0 6 4 9 8 6 4 -2 14 -1 21 4 10 6 3 15 -26 33 -32
20 -48 24 -84 20 -34 -4 -50 -1 -62 12 -35 35 -11 86 43 89 39 2 48 18 29 52
-10 20 -18 24 -39 19 -30 -7 -55 15 -65 56 -10 42 46 68 104 48 26 -9 35 -8
62 13 54 41 79 67 79 83 0 23 -17 18 -23 -6 -5 -19 -11 -21 -48 -16 -23 3 -48
12 -57 20 -9 10 -21 13 -31 8 -9 -5 -29 -15 -46 -24 -16 -8 -46 -13 -66 -12
-20 2 -53 -2 -75 -10 -36 -12 -39 -16 -42 -55 -3 -38 -1 -41 17 -35 12 4 21 2
21 -4 0 -6 -7 -11 -15 -11 -20 0 -14 -53 9 -79 17 -19 17 -20 -6 -23 -21 -4
-20 -5 12 -20 l35 -17 -35 6 c-25 3 -31 2 -21 -5 8 -6 12 -19 9 -30 -4 -12 2
-29 12 -40 16 -17 17 -23 5 -45 -8 -16 -12 -44 -9 -69 2 -24 4 -47 3 -53 0 -5
-2 -68 -5 -140 -2 -71 -5 -148 -7 -170 -2 -37 1 -41 38 -60 32 -16 47 -33 72
-85 49 -97 53 -131 26 -224 -13 -43 -23 -102 -23 -131 0 -45 3 -53 21 -58 16
-4 20 -12 17 -39 -2 -20 -9 -34 -18 -34 -8 -1 -23 -2 -33 -3 -10 0 -17 -7 -14
-13 2 -7 -2 -29 -9 -48 -7 -19 -20 -69 -29 -110 -20 -86 -47 -122 -112 -152
-43 -19 -43 -19 -88 1 l-45 20 -4 -22 c-20 -105 -27 -146 -41 -237 -9 -58 -21
-126 -27 -152 -10 -48 -10 -48 34 -97 26 -29 49 -67 56 -92 7 -24 41 -118 77
-209 35 -91 66 -173 69 -182 3 -10 15 -18 27 -18 12 0 60 -17 108 -39 47 -21
103 -44 123 -50 21 -7 56 -28 79 -47 22 -19 47 -34 54 -34 7 0 35 -15 62 -34
27 -18 72 -38 101 -45 71 -15 164 -54 243 -102 37 -22 100 -54 140 -71 40 -16
104 -50 143 -74 39 -24 75 -44 81 -44 14 0 151 -93 187 -128 15 -14 30 -24 32
-21 14 16 82 132 134 229 155 294 261 624 314 983 26 175 31 568 10 742 -32
256 -83 466 -175 715 -87 236 -222 500 -256 500 -22 0 -32 20 -25 47 6 22 -19
48 -38 41 -7 -3 -21 3 -30 13 -14 15 -14 18 -2 23 20 8 18 17 -16 68 -23 35
-35 45 -50 41 -11 -3 -20 0 -20 6 0 6 5 11 12 11 6 0 0 12 -14 28 -14 15 -31
38 -38 51 -7 13 -30 43 -52 67 -40 44 -41 44 -107 43 -36 -1 -74 -3 -83 -6z
m12 -62 c15 -29 13 -31 -25 -31 -39 0 -42 5 -18 32 21 23 30 23 43 -1z m124
13 c21 -8 20 -24 -1 -54 -10 -14 -22 -43 -28 -64 -13 -50 -53 -81 -90 -72 -22
6 -26 11 -20 29 9 29 9 39 1 58 -8 18 16 47 69 86 32 23 44 26 69 17z m149
-281 c-7 -2 -21 -2 -30 0 -10 3 -4 5 12 5 17 0 24 -2 18 -5z m-1088 -103 c4
-6 -8 -10 -30 -10 -22 0 -34 4 -30 10 3 6 17 10 30 10 13 0 27 -4 30 -10z
m925 -226 c0 -27 -28 -45 -62 -42 -64 6 -34 56 35 57 18 1 27 -4 27 -15z
m-772 -11 c17 -3 32 -11 32 -17 0 -7 11 -18 25 -24 29 -14 31 -24 9 -57 l-16
-25 38 0 c22 0 46 -7 57 -17 12 -11 35 -18 60 -18 47 0 61 -20 23 -35 -36 -13
-33 -38 6 -48 18 -4 34 -16 36 -25 3 -13 -4 -17 -32 -17 -36 0 -36 0 -36 -44
0 -49 -10 -61 -44 -52 -25 6 -43 41 -48 91 -3 28 -7 31 -53 38 -27 5 -57 12
-65 16 -21 11 -34 69 -19 87 9 11 8 18 -5 32 -9 10 -16 24 -16 30 0 19 -44 14
-114 -12 -35 -14 -66 -22 -69 -19 -5 4 18 44 56 97 14 20 87 38 122 29 11 -3
35 -7 53 -10z m332 -18 c0 -18 -5 -25 -20 -25 -15 0 -20 7 -20 25 0 18 5 25
20 25 15 0 20 -7 20 -25z m993 -300 c-7 -21 -13 -19 -13 6 0 11 4 18 10 14 5
-3 7 -12 3 -20z m-1149 -144 c3 -4 3 -11 0 -14 -8 -8 -34 3 -34 14 0 11 27 12
34 0z m1053 -248 c22 -20 14 -44 -16 -54 -15 -5 -34 -21 -41 -34 -14 -27 -36
-33 -42 -13 -3 7 9 41 26 74 32 64 33 65 73 27z m-348 -372 c11 -7 10 -14 -8
-40 -33 -45 -61 -58 -78 -35 -17 23 -16 31 2 38 8 3 15 12 15 20 0 23 42 34
69 17z m-139 -381 c0 -5 -4 -10 -10 -10 -5 0 -10 5 -10 10 0 6 5 10 10 10 6 0
10 -4 10 -10z m256 -26 c-5 -13 -10 -14 -18 -6 -6 6 -8 18 -4 28 5 13 10 14
18 6 6 -6 8 -18 4 -28z m-611 -33 c-3 -5 -1 -12 5 -16 7 -4 7 -12 0 -26 -14
-24 -30 -25 -30 0 0 27 10 51 22 51 5 0 7 -4 3 -9z m243 -371 c9 -26 8 -34
-14 -59 -22 -26 -23 -33 -12 -51 11 -17 11 -22 -2 -30 -31 -20 -41 -12 -34 30
6 36 4 40 -20 51 -14 7 -26 15 -26 18 0 3 14 21 31 39 38 41 64 41 77 2z m322
-19 c0 -23 -9 -31 -26 -24 -17 6 -18 40 -1 46 17 6 27 -1 27 -22z m-57 -211
c7 -28 5 -36 -9 -47 -28 -21 -32 -16 -31 37 1 39 4 50 16 48 8 -2 19 -19 24
-38z m-47 -122 c-4 -48 -5 -50 -15 -43 -12 7 -11 46 2 63 14 18 16 15 13 -20z
m-296 -82 c0 -15 -21 -26 -51 -26 -22 0 -24 11 -7 28 17 17 58 15 58 -2z m220
-180 c0 -19 -27 -46 -46 -46 -8 0 -14 10 -14 24 0 23 4 26 53 35 4 0 7 -5 7
-13z m-40 -140 c-5 -13 -6 -27 -2 -32 4 -4 -1 -4 -11 -1 -10 4 -21 7 -23 7 -2
0 -4 9 -4 20 0 11 7 20 15 20 8 0 15 5 15 11 0 5 4 8 10 4 6 -3 6 -15 0 -29z"/>
<path d="M726 4894 c-34 -51 -42 -84 -14 -56 21 21 58 14 68 -12 5 -13 22 -28
41 -35 37 -13 34 -13 43 16 6 20 2 25 -34 39 -32 13 -40 21 -37 35 5 19 -13
69 -24 69 -3 0 -23 -25 -43 -56z"/>
<path d="M4930 4930 c-8 -15 -8 -20 2 -20 22 0 41 17 34 29 -11 17 -24 13 -36
-9z"/>
<path d="M5110 4926 c0 -9 40 -13 46 -5 3 5 -6 9 -20 9 -14 0 -26 -2 -26 -4z"/>
<path d="M4870 4910 c0 -5 7 -7 15 -4 8 4 15 8 15 10 0 2 -7 4 -15 4 -8 0 -15
-4 -15 -10z"/>
<path d="M4720 4790 c-9 -6 -10 -10 -3 -10 6 0 15 5 18 10 8 12 4 12 -15 0z"/>
<path d="M634 4734 c4 -9 1 -23 -6 -31 -7 -8 -12 -27 -13 -41 0 -22 -5 -28
-27 -30 -23 -3 -33 -17 -78 -109 -28 -58 -51 -113 -51 -122 1 -9 6 -90 12
-181 12 -191 12 -202 4 -295 -11 -133 -12 -160 -3 -205 5 -25 11 -61 13 -80 2
-19 11 -60 19 -91 18 -66 29 -185 30 -324 1 -55 5 -106 9 -112 5 -7 5 -18 1
-25 -9 -14 -13 -59 -6 -72 7 -12 31 35 32 62 0 12 4 22 10 22 5 0 13 12 16 26
5 19 1 29 -15 40 -28 20 -27 39 9 84 17 21 30 44 30 52 0 7 8 30 19 50 15 30
18 54 15 124 -2 48 -8 92 -14 98 -5 5 -10 20 -10 33 0 13 -15 40 -32 59 -45
49 -50 61 -38 83 9 18 64 41 96 41 13 0 35 45 39 78 2 12 -1 22 -6 22 -19 0
-8 27 16 38 14 7 28 20 32 29 3 10 13 26 22 36 14 17 14 20 -9 37 -24 18 -25
18 -36 -9 -7 -16 -19 -31 -28 -34 -17 -7 -46 17 -46 38 0 19 -38 29 -55 15
-19 -16 -59 -9 -63 11 -4 23 27 52 49 46 12 -3 19 0 19 9 0 8 -4 14 -10 14 -5
0 -10 11 -10 25 0 14 -9 34 -20 45 -24 24 -25 48 -5 77 13 18 12 22 -5 38 -25
23 -25 43 0 75 11 14 20 33 20 43 0 31 28 30 65 -2 37 -32 50 -37 59 -22 3 5
15 7 26 4 11 -3 27 0 35 7 10 8 29 10 56 6 57 -9 159 27 159 56 0 5 -12 7 -27
4 -41 -9 -57 6 -49 45 l6 32 -35 -36 c-72 -74 -205 -82 -205 -12 0 17 -7 24
-30 29 -34 6 -40 31 -10 39 12 3 20 14 20 25 0 12 4 23 9 26 11 7 51 -27 51
-44 0 -7 7 -10 16 -6 9 3 23 6 32 6 16 1 15 2 0 14 -24 18 -23 43 2 56 11 6
20 21 20 34 0 26 -24 51 -38 42 -6 -3 -29 1 -52 9 -38 14 -42 13 -36 -1z m-34
-774 c0 -4 3 -15 6 -24 8 -21 -14 -21 -37 0 -9 8 -15 23 -12 34 4 16 9 18 24
9 10 -5 19 -14 19 -19z"/>
<path d="M941 4636 c-12 -15 -5 -66 9 -66 5 0 16 7 24 16 14 14 18 14 38 0 12
-9 31 -16 41 -16 15 0 16 3 7 21 -14 25 -40 36 -49 21 -8 -13 -25 -3 -34 21
-8 21 -21 22 -36 3z"/>
<path d="M4800 4630 c0 -5 5 -10 10 -10 6 0 10 5 10 10 0 6 -4 10 -10 10 -5 0
-10 -4 -10 -10z"/>
<path d="M775 4585 c21 -17 54 -17 58 0 1 6 -16 11 -38 13 -38 2 -39 1 -20
-13z"/>
<path d="M4100 4490 c18 -16 38 -27 43 -23 12 7 -41 53 -62 53 -8 0 0 -13 19
-30z"/>
<path d="M4175 4390 c3 -5 11 -10 16 -10 6 0 7 5 4 10 -3 6 -11 10 -16 10 -6
0 -7 -4 -4 -10z"/>
<path d="M4158 4357 c8 -10 6 -16 -9 -25 -19 -12 -19 -13 8 -37 16 -13 22 -25
16 -25 -21 0 -15 -17 14 -44 l27 -25 -39 6 c-33 5 -37 4 -27 -8 33 -38 52 -62
52 -66 0 -7 -49 32 -50 40 0 8 -30 10 -30 2 0 -2 9 -19 20 -37 11 -18 20 -43
20 -55 0 -25 31 -46 54 -37 21 8 20 20 -1 28 -13 5 -14 9 -4 19 9 9 14 9 21
-3 11 -17 12 -14 14 57 1 34 -3 54 -11 58 -16 6 -17 32 -2 37 19 6 1 65 -22
71 -27 7 -24 26 4 20 22 -5 22 -5 2 10 -11 8 -23 13 -27 11 -4 -2 -9 0 -13 6
-3 5 -11 10 -17 10 -7 0 -7 -4 0 -13z"/>
<path d="M336 4088 c-113 -376 -155 -750 -125 -1115 20 -252 67 -490 138 -701
55 -162 79 -218 91 -206 7 7 6 21 -1 42 -7 22 -8 42 -1 64 6 18 9 60 7 93 -2
33 -6 101 -9 150 -3 50 -8 180 -12 290 -6 212 -11 325 -18 415 -2 30 -7 100
-10 155 -3 55 -8 127 -11 160 -7 94 -19 571 -16 658 1 42 0 77 -3 77 -3 0 -17
-37 -30 -82z m8 -1364 c3 -11 0 -28 -9 -40 -14 -18 -16 -18 -29 -1 -15 19 -10
57 8 69 13 8 22 0 30 -28z"/>
<path d="M4353 4048 c-24 -26 -83 -118 -83 -129 0 -5 13 -3 29 2 19 7 28 16
25 24 -3 8 1 23 9 35 11 16 16 18 24 8 13 -17 50 -114 59 -153 10 -44 14 -48
35 -29 54 49 44 167 -20 230 -42 40 -51 41 -78 12z"/>
<path d="M3177 4024 c-1 -1 -15 -4 -30 -6 -15 -2 -36 -12 -47 -21 -11 -9 -22
-12 -25 -7 -6 9 -65 -17 -65 -29 0 -13 -109 -119 -127 -123 -10 -2 -17 -10
-16 -16 2 -7 -2 -12 -7 -12 -5 0 -10 7 -10 15 0 9 -9 15 -21 15 -18 0 -19 -2
-9 -15 10 -13 9 -15 -12 -15 -13 0 -29 -5 -34 -10 -13 -13 -46 -2 -38 12 4 6
9 6 14 -2 5 -8 9 -5 13 9 5 21 -18 38 -28 21 -4 -6 -16 -10 -29 -10 -12 0 -28
-6 -34 -12 -10 -10 -17 -10 -31 -1 -13 8 -21 9 -29 1 -9 -9 -16 -7 -29 5 -17
15 -20 14 -40 -9 -12 -13 -17 -24 -12 -24 17 0 69 -43 69 -57 0 -7 -1 -13 -2
-13 -15 0 -213 42 -217 45 -2 3 9 6 25 7 47 3 78 5 92 7 6 0 12 12 12 25 0 39
-36 49 -215 60 -27 2 -55 0 -61 -5 -10 -8 -44 -17 -71 -18 -7 -1 -12 -7 -10
-13 1 -7 -13 -20 -30 -28 -33 -15 -44 -36 -20 -38 6 -1 38 -3 70 -5 31 -1 57
-7 56 -13 -1 -5 -5 -8 -10 -7 -5 2 -9 -2 -9 -7 0 -6 5 -10 10 -10 25 0 6 -22
-38 -44 -51 -26 -82 -62 -82 -95 0 -17 9 -20 63 -23 34 -2 63 -3 65 -2 2 1 -2
11 -9 22 -10 16 -10 23 4 36 20 20 71 22 64 2 -3 -7 10 -30 29 -50 25 -27 30
-36 17 -36 -9 0 -13 -3 -9 -7 4 -4 22 -6 40 -5 44 3 58 -26 25 -48 -13 -8 -32
-23 -43 -33 -21 -18 -20 -18 24 -11 40 6 117 38 130 55 3 4 24 12 47 19 23 7
40 16 38 20 -3 4 5 10 16 13 12 3 18 10 14 16 -3 6 5 15 18 20 42 16 41 73 -2
124 -8 9 -11 20 -7 24 4 4 11 1 17 -7 8 -13 10 -13 19 0 8 13 10 13 10 0 0
-10 3 -11 11 -3 6 6 18 9 25 6 10 -3 12 0 9 10 -4 8 1 17 9 20 9 4 16 13 16
20 0 12 16 14 49 8 3 -1 -3 -7 -14 -14 -14 -11 -15 -16 -5 -22 9 -5 15 -4 18
3 6 18 22 14 22 -4 0 -10 5 -14 15 -10 9 3 24 -4 37 -19 12 -14 28 -25 35 -25
7 0 13 -7 13 -14 0 -20 44 -66 62 -66 9 0 27 -9 41 -20 16 -13 41 -21 64 -21
21 0 56 0 78 -1 22 0 54 0 70 2 17 1 82 -1 146 -5 121 -8 173 -3 166 18 -2 8
-32 12 -94 12 -64 0 -95 4 -107 14 -17 14 -17 16 0 28 10 7 45 13 80 13 45 0
68 5 86 19 25 20 141 46 157 36 16 -10 128 22 160 46 62 46 31 89 -65 89 -40
0 -44 2 -44 24 0 13 7 26 15 30 21 8 19 36 -3 36 -10 0 -22 3 -25 7 -4 3 -24
8 -45 10 -71 6 -102 14 -102 27 0 8 -15 13 -40 14 -22 1 -50 7 -63 13 -67 36
-81 37 -96 12 -10 -16 -12 -17 -23 -2 -7 9 -18 14 -24 12 -6 -2 -36 0 -67 5
-31 5 -58 8 -60 6z m521 -159 c-3 -3 -9 2 -12 12 -6 14 -5 15 5 6 7 -7 10 -15
7 -18z m-348 -155 c0 -5 -4 -10 -10 -10 -5 0 -10 5 -10 10 0 6 5 10 10 10 6 0
10 -4 10 -10z m97 -46 c-3 -3 -12 -4 -19 -1 -8 3 -5 6 6 6 11 1 17 -2 13 -5z"/>
<path d="M795 3878 c-16 -5 -36 -12 -43 -14 -10 -3 -5 -14 17 -39 17 -20 31
-42 31 -50 0 -10 10 -15 29 -15 17 0 33 -4 36 -10 7 -12 65 -13 82 -2 16 10
-11 52 -33 52 -8 0 -14 9 -14 19 0 18 -53 72 -68 70 -4 0 -20 -5 -37 -11z"/>
<path d="M4235 3822 c-4 -25 -1 -47 9 -67 9 -17 16 -39 16 -51 0 -11 9 -29 20
-39 11 -10 20 -23 20 -29 0 -6 4 -17 9 -25 7 -11 15 -10 41 9 29 20 31 27 26
59 -10 63 -52 136 -91 160 -20 11 -38 21 -40 21 -2 0 -6 -17 -10 -38z"/>
<path d="M2590 3834 c0 -8 5 -12 10 -9 6 4 8 11 5 16 -9 14 -15 11 -15 -7z"/>
<path d="M1835 3801 c-11 -5 -28 -17 -37 -28 -15 -16 -15 -24 -5 -53 7 -19 16
-41 20 -48 5 -7 2 -14 -7 -18 -9 -3 -13 -10 -10 -15 3 -5 -2 -6 -10 -3 -8 3
-30 1 -50 -4 -40 -11 -44 -8 -21 15 18 17 16 32 -6 46 -11 7 -23 3 -43 -16
-15 -14 -37 -27 -49 -29 -16 -2 -23 -13 -29 -42 -5 -21 -22 -54 -38 -73 -17
-18 -30 -43 -30 -54 0 -12 -11 -34 -25 -51 -23 -27 -26 -39 -29 -95 -1 -11
-20 -28 -49 -42 -49 -25 -52 -32 -15 -38 29 -5 48 -22 48 -44 0 -11 7 -19 15
-19 14 0 17 -4 19 -32 2 -21 -73 -18 -85 4 -5 10 -16 18 -24 18 -26 0 -65 -23
-70 -42 -7 -20 -58 -25 -85 -8 -11 7 -18 3 -26 -12 -18 -33 -6 -48 36 -48 56
0 88 -45 69 -100 -7 -19 -18 -30 -30 -30 -10 0 -19 -3 -20 -7 0 -5 -1 -28 -2
-53 -3 -48 -37 -105 -69 -116 -19 -6 -25 -39 -8 -49 15 -9 40 14 40 36 0 22
18 24 55 7 30 -14 28 -32 -6 -37 -13 -1 -36 -12 -50 -22 -15 -10 -39 -19 -53
-19 -15 0 -31 -8 -38 -20 -8 -12 -24 -20 -40 -20 -37 0 -90 31 -85 51 3 12 -2
15 -22 12 -14 -3 -33 -7 -41 -10 -8 -3 -26 -8 -40 -10 -34 -6 -47 -20 -32 -35
21 -21 14 -45 -15 -52 -26 -7 -30 -4 -54 38 -8 13 -14 15 -22 7 -21 -21 -40
-13 -34 15 3 16 -2 31 -13 42 -27 26 -10 62 29 62 21 0 42 11 70 38 22 21 43
34 45 28 3 -7 11 -3 20 8 8 10 20 15 27 11 7 -5 10 -3 7 6 -3 8 -1 25 4 37 7
19 3 28 -17 44 -14 11 -25 29 -25 42 0 42 -55 66 -66 29 -11 -37 -22 -48 -55
-59 -44 -15 -58 -37 -41 -65 11 -16 11 -24 1 -36 -7 -8 -12 -30 -11 -49 3 -32
-10 -45 -23 -24 -9 15 -125 13 -126 -2 -18 -227 -15 -664 5 -696 12 -20 -6
-42 -34 -42 -15 0 -32 -6 -38 -12 -39 -50 84 -305 272 -566 33 -45 62 -82 65
-82 3 0 31 46 61 103 30 56 91 147 135 203 80 101 136 149 210 180 22 9 63 27
92 40 28 13 87 33 130 44 43 12 112 33 153 47 41 14 120 41 175 60 81 27 467
164 575 204 20 8 29 22 41 67 9 31 19 64 22 72 5 9 -14 45 -51 95 -107 150
-234 405 -301 605 -47 143 -49 150 -61 220 -6 36 -22 126 -35 200 -14 74 -26
142 -28 150 -3 22 -20 38 -34 33 -7 -3 -13 2 -13 11 0 10 -6 13 -15 10 -8 -4
-15 -1 -15 5 0 6 6 11 14 11 23 0 28 17 11 33 -8 9 -15 23 -15 31 0 17 -14 19
-45 7z m-405 -805 c0 -3 -4 -8 -10 -11 -5 -3 -10 -1 -10 4 0 6 5 11 10 11 6 0
10 -2 10 -4z m-80 -228 c0 -5 -10 -6 -21 -3 -16 6 -20 4 -14 -6 6 -11 5 -11
-5 -2 -7 6 -9 16 -6 21 7 12 46 4 46 -10z m-210 -148 c-19 -13 -30 -13 -30 0
0 6 10 10 23 10 18 0 19 -2 7 -10z m-290 -229 c0 -5 -6 -14 -14 -20 -12 -10
-13 -8 -9 8 5 21 23 30 23 12z m822 -98 c2 -31 7 -39 26 -41 22 -3 23 -7 17
-40 -7 -40 -23 -65 -35 -57 -5 3 -11 1 -15 -5 -10 -16 -25 -11 -25 8 0 17 -5
18 -46 12 -60 -9 -95 15 -90 63 2 21 9 33 21 36 10 1 23 7 29 12 48 39 64 48
88 49 24 0 27 -4 30 -37z m-988 -1 c2 -4 -5 -19 -16 -32 -14 -18 -18 -20 -14
-7 3 10 6 25 6 33 0 15 16 19 24 6z m1152 -100 c-4 -3 -12 0 -19 7 -9 9 -9 14
3 21 11 7 16 5 18 -6 2 -9 1 -18 -2 -22z"/>
<path d="M4241 3534 c0 -11 3 -14 6 -6 3 7 2 16 -1 19 -3 4 -6 -2 -5 -13z"/>
<path d="M1000 3431 c0 -36 32 -51 74 -35 13 5 12 9 -8 25 -25 20 -66 26 -66
10z"/>
<path d="M1148 3313 c-10 -2 -18 -9 -18 -14 0 -6 4 -8 9 -5 5 4 19 -14 31 -39
12 -25 24 -45 27 -45 15 0 73 43 73 54 0 7 -10 22 -23 34 -22 21 -57 26 -99
15z"/>
<path d="M3120 3251 c0 -5 11 -18 25 -28 16 -12 29 -38 40 -78 20 -78 19 -97
-6 -129 -16 -20 -26 -25 -46 -20 -18 5 -24 3 -19 -5 7 -10 -25 -14 -131 -15
-12 0 -19 -4 -16 -9 3 -5 -3 -7 -13 -3 -25 7 -49 -8 -40 -25 4 -8 1 -6 -7 4
-17 21 -37 22 -37 2 0 -8 -4 -15 -10 -15 -5 0 -14 -10 -21 -21 -10 -20 -9 -21
10 -16 11 3 21 2 21 -3 0 -9 -35 -20 -66 -20 -12 0 -38 11 -58 25 -41 28 -80
40 -95 31 -20 -13 43 -59 97 -71 18 -4 32 -13 32 -21 0 -8 8 -17 18 -21 9 -3
31 -21 48 -39 29 -29 36 -32 75 -27 47 5 99 24 99 35 0 3 14 10 32 13 18 4 40
18 51 31 10 13 24 24 32 24 7 0 25 16 41 35 15 19 33 35 40 35 6 0 14 7 18 15
7 20 26 19 26 -1 0 -13 4 -11 18 6 15 18 22 21 38 13 10 -6 24 -9 30 -6 6 2
19 -9 30 -24 39 -56 83 -90 110 -85 20 3 26 0 31 -17 3 -12 13 -21 24 -21 11
0 19 -7 19 -15 0 -25 50 -14 56 12 4 13 11 20 17 16 7 -4 8 0 4 11 -4 10 -7
24 -7 33 0 9 -8 13 -22 11 -24 -3 -63 27 -53 41 2 5 -5 11 -16 14 -11 3 -23
14 -25 24 -3 11 -15 25 -26 32 -19 12 -20 11 -14 -16 6 -26 6 -26 -16 8 -13
20 -28 34 -34 32 -7 -2 -14 6 -17 19 -10 38 -84 109 -199 191 -65 46 -88 56
-88 38z"/>
<path d="M2512 2957 c-7 -8 -9 -17 -5 -20 3 -4 2 -7 -4 -7 -6 0 -13 -9 -16
-20 -9 -34 12 -22 28 17 16 39 15 52 -3 30z"/>
<path d="M2820 2939 c0 -5 5 -7 10 -4 6 3 10 8 10 11 0 2 -4 4 -10 4 -5 0 -10
-5 -10 -11z"/>
<path d="M3240 2876 c0 -9 7 -16 16 -16 17 0 14 22 -4 28 -7 2 -12 -3 -12 -12z"/>
<path d="M975 2803 c-35 -9 -38 -21 -9 -39 16 -9 41 -25 56 -35 15 -11 34 -19
43 -19 16 0 21 25 5 35 -5 3 -7 12 -3 21 11 30 -38 50 -92 37z"/>
<path d="M3352 2762 c-19 -22 -25 -24 -32 -12 -7 10 -10 11 -10 3 0 -7 -7 -13
-15 -13 -8 0 -15 -5 -15 -11 0 -6 9 -9 20 -6 11 3 18 1 14 -4 -3 -5 -59 -9
-125 -9 -84 0 -130 -5 -156 -15 -19 -8 -44 -15 -54 -15 -11 0 -19 -5 -19 -11
0 -5 -4 -8 -9 -5 -10 6 -159 -18 -168 -28 -6 -5 28 -10 65 -9 16 1 15 -4 -6
-27 -20 -22 -84 -26 -207 -12 -105 12 -132 -3 -109 -62 8 -22 23 -20 66 9 36
24 42 25 215 25 170 1 206 5 338 39 22 6 47 10 55 10 34 0 -75 -48 -120 -53
-50 -6 -90 -18 -90 -28 0 -6 15 -8 35 -6 30 3 34 1 29 -14 -3 -10 -1 -18 5
-18 6 0 11 6 11 13 0 15 42 37 68 36 11 0 6 -6 -13 -14 -16 -8 -25 -14 -20
-15 6 0 61 25 123 55 98 48 115 54 133 43 14 -9 19 -20 16 -37 -3 -14 1 -31 9
-38 37 -37 8 -72 -71 -87 -16 -3 -24 -3 -17 0 6 3 12 12 12 19 0 16 -40 8 -46
-10 -7 -16 -116 -7 -127 11 -6 10 -13 11 -25 5 -9 -5 -63 -19 -120 -32 -93
-20 -105 -26 -118 -51 -13 -26 -13 -28 3 -28 17 -1 17 -1 1 -14 -19 -14 -23
-43 -9 -64 6 -11 21 -10 77 3 44 10 118 16 207 17 120 0 137 2 137 17 0 9 9
22 20 29 11 7 20 18 20 26 0 8 7 16 15 20 8 3 12 12 9 21 -3 8 -1 15 4 15 6 0
26 16 45 35 29 30 39 34 66 29 18 -4 37 -2 46 6 19 15 40 3 25 -15 -7 -9 -6
-16 4 -24 8 -7 12 -19 9 -27 -7 -18 25 -30 40 -15 9 9 9 14 -1 20 -10 6 -9 10
7 14 14 3 18 10 14 26 -3 12 -12 21 -19 21 -8 0 -14 9 -14 20 0 12 -7 20 -16
20 -14 0 -14 3 -4 15 10 13 10 19 -3 33 -13 15 -14 22 -2 55 14 40 3 103 -15
92 -5 -3 -11 -1 -15 5 -3 5 -13 10 -22 10 -9 0 -24 6 -32 14 -9 8 -34 16 -56
20 -35 5 -43 2 -63 -22z m-447 -162 c-3 -5 -15 -10 -26 -10 -11 0 -17 5 -14
10 3 6 15 10 26 10 11 0 17 -4 14 -10z m425 -179 c0 -12 -28 -22 -34 -12 -3 5
-3 11 1 15 9 9 33 7 33 -3z"/>
<path d="M3590 2740 c0 -5 5 -10 10 -10 6 0 10 5 10 10 0 6 -4 10 -10 10 -5 0
-10 -4 -10 -10z"/>
<path d="M2895 2525 c-24 -11 -26 -14 -9 -14 11 -1 29 6 40 14 24 18 8 18 -31
0z"/>
<path d="M2990 2491 c0 -12 29 -23 41 -15 5 3 7 10 4 15 -8 12 -45 12 -45 0z"/>
<path d="M3697 2334 c-4 -4 -4 -10 -1 -15 6 -10 34 0 34 12 0 10 -24 12 -33 3z"/>
<path d="M3401 2254 c-14 -17 -21 -40 -20 -63 1 -25 3 -29 6 -13 3 15 10 22
18 18 9 -3 12 0 9 8 -3 8 6 23 20 34 14 11 26 25 26 31 0 21 -39 11 -59 -15z"/>
<path d="M3745 2261 c-16 -10 -73 -56 -125 -101 -116 -100 -190 -146 -259
-161 -50 -10 -54 -14 -74 -58 -15 -32 -22 -69 -23 -121 -1 -41 0 -78 2 -82 2
-3 39 7 81 24 43 16 106 38 141 49 147 47 401 289 458 438 13 34 13 35 -2 14
-9 -12 -24 -32 -35 -44 -10 -12 -17 -24 -15 -28 2 -3 -2 -12 -10 -19 -8 -7
-14 -8 -14 -2 0 5 -4 10 -10 10 -5 0 -10 -12 -10 -27 0 -20 -7 -31 -24 -39
-22 -10 -25 -9 -29 15 -3 14 -2 28 2 31 5 3 13 15 20 28 10 18 10 26 0 38 -10
12 -10 20 -1 35 11 17 9 19 -15 19 -16 0 -41 -9 -58 -19z"/>
<path d="M2855 2168 c122 -101 173 -159 245 -280 19 -32 37 -58 41 -58 3 0 11
11 17 24 6 14 24 33 39 43 15 10 34 26 41 35 7 10 17 16 22 13 5 -3 11 8 15
25 4 16 13 30 20 30 16 0 46 40 39 51 -2 4 0 10 6 14 15 9 12 25 -5 25 -8 0
-15 -6 -15 -13 0 -16 -42 -20 -51 -5 -4 6 -48 11 -105 12 -89 2 -99 4 -96 20
3 14 0 16 -16 7 -18 -9 -86 -11 -77 -2 4 3 -23 19 -117 69 l-43 22 40 -32z"/>
<path d="M2578 2125 c-3 -75 9 -108 31 -81 7 8 10 20 6 25 -3 6 -9 32 -12 58
-8 74 -21 73 -25 -2z"/>
<path d="M3345 2181 c-3 -5 -1 -12 5 -16 5 -3 10 1 10 9 0 18 -6 21 -15 7z"/>
<path d="M3000 2126 c0 -2 7 -7 16 -10 8 -3 12 -2 9 4 -6 10 -25 14 -25 6z"/>
<path d="M3320 2120 c0 -5 5 -10 11 -10 5 0 7 5 4 10 -3 6 -8 10 -11 10 -2 0
-4 -4 -4 -10z"/>
<path d="M3282 2108 c6 -18 28 -21 28 -4 0 9 -7 16 -16 16 -9 0 -14 -5 -12
-12z"/>
<path d="M3360 2058 c0 -12 1 -19 3 -17 1 2 9 12 16 22 12 14 11 17 -3 17 -10
0 -16 -8 -16 -22z"/>
<path d="M2707 1809 c12 -23 13 -33 4 -38 -15 -10 -3 -20 57 -50 l42 -21 0 25
c0 30 -74 115 -101 115 -16 0 -16 -2 -2 -31z"/>
<path d="M3490 1751 c0 -5 -12 -13 -27 -18 -15 -5 -22 -12 -17 -16 6 -3 27 3
47 13 20 11 39 15 42 10 7 -11 35 -2 35 11 0 5 -18 9 -40 9 -22 0 -40 -4 -40
-9z"/>
<path d="M3676 1547 c3 -10 9 -15 12 -12 3 3 0 11 -7 18 -10 9 -11 8 -5 -6z"/>
<path d="M3450 460 c-14 -4 -38 -13 -55 -21 -16 -7 -32 -13 -35 -14 -60 -16
-63 -28 -15 -86 20 -23 41 -62 48 -86 l12 -45 80 7 c44 4 92 13 106 21 29 14
57 44 42 44 -6 0 -24 28 -42 63 -18 34 -38 67 -45 72 -7 6 -18 20 -25 33 -12
23 -29 26 -71 12z"/>
</g>
</svg>
